<svg width="19" height="19" viewBox="0 0 19 19" fill="none" xmlns="http://www.w3.org/2000/svg">
<g opacity="0.7" clip-path="url(#clip0)">
<path d="M7.04395 14.0879C3.16044 14.0879 0 10.9275 0 7.04395C0 3.16044 3.16044 0 7.04395 0C10.9275 0 14.0879 3.16044 14.0879 7.04395C14.0879 10.9275 10.9275 14.0879 7.04395 14.0879ZM7.04395 1.86707C4.18903 1.86707 1.86707 4.18903 1.86707 7.04395C1.86707 9.89887 4.18903 12.2208 7.04395 12.2208C9.89887 12.2208 12.2208 9.89717 12.2208 7.04395C12.2208 4.19073 9.89717 1.86707 7.04395 1.86707Z" fill="#94D7E0"/>
<path d="M18.0664 19.0002C17.8271 19.0002 17.5895 18.9085 17.4061 18.7269L12.7266 14.0473C12.3616 13.6824 12.3616 13.0917 12.7266 12.7268C13.0915 12.3619 13.6822 12.3619 14.0471 12.7268L18.7267 17.4064C19.0916 17.7713 19.0916 18.362 18.7267 18.7269C18.5451 18.9085 18.3057 19.0002 18.0664 19.0002Z" fill="#94D7E0"/>
</g>
<defs>
<clipPath id="clip0">
<rect width="19" height="19" fill="white"/>
</clipPath>
</defs>
</svg>
