<svg width="35" height="35" viewBox="0 0 35 35" fill="none" xmlns="http://www.w3.org/2000/svg">
<path d="M6.47782 26.4564C6.47782 26.435 6.47782 26.4136 6.47782 26.3707C6.24887 23.3731 7.02293 21.9492 8.68008 20.0543C9.90113 18.6733 12.5722 18.2129 13.815 18.0738C14.0222 18.1808 14.2184 18.2772 14.4256 18.3628C15.3959 18.7589 16.4316 18.9837 17.5109 18.9837C18.5684 18.9837 19.6041 18.7589 20.5744 18.3628C20.7816 18.2772 20.9778 18.1808 21.185 18.0738C22.4278 18.2343 25.0989 18.6947 26.3199 20.0543C27.988 21.9492 28.7511 23.3624 28.5222 26.3707C28.5222 26.3921 28.5222 26.4136 28.5222 26.4564C28.5222 26.4671 28.5222 26.4671 28.5222 26.4671C30.6808 23.9833 32 20.7609 32 17.228C32 9.38065 25.5132 3 17.5 3C9.49774 3 3 9.38065 3 17.2387C3 20.7609 4.30827 23.9833 6.47782 26.4778C6.47782 26.4671 6.47782 26.4671 6.47782 26.4564ZM17.5 4.74504C21.0105 4.74504 23.856 7.57137 23.856 11.0186C23.856 14.4659 21.0214 17.2922 17.5 17.2922C14.0113 17.2922 11.144 14.4659 11.144 11.0186C11.144 7.56067 13.9895 4.74504 17.5 4.74504Z" fill="#418D9E"/>
<g clip-path="url(#clip0)">
<path d="M17.5054 35C7.84797 35 0 27.152 0 17.4946C0 7.83726 7.84797 0 17.5054 0C27.1627 0 35.0107 7.84797 35.0107 17.4946C35.0107 27.1413 27.152 35 17.5054 35ZM17.5054 1.07066C8.43683 1.07066 1.07066 8.43683 1.07066 17.4946C1.07066 26.5525 8.43683 33.9293 17.5054 33.9293C26.5739 33.9293 33.94 26.5632 33.94 17.4946C33.9293 8.43683 26.5632 1.07066 17.5054 1.07066Z" fill="#418D9E"/>
</g>
<defs>
<clipPath id="clip0">
<rect width="35" height="35" fill="white"/>
</clipPath>
</defs>
</svg>
