<svg width="140" height="143" viewBox="0 0 140 143" fill="none" xmlns="http://www.w3.org/2000/svg">
<g clip-path="url(#clip0)">
<path d="M96.5367 87.6044C96.5367 87.8177 96.473 88.031 96.367 88.2017C96.2397 88.3723 96.0276 88.5216 95.7094 88.6283C95.3912 88.735 94.967 88.8203 94.4579 88.8843C93.9276 88.9483 93.27 88.9909 92.4639 88.9909C91.6791 88.9909 91.0215 88.9483 90.4912 88.8843C89.9609 88.8203 89.5579 88.735 89.2397 88.6283C88.9215 88.5216 88.7094 88.3723 88.5821 88.2017C88.4548 88.031 88.3912 87.8391 88.3912 87.6044V52.9423H88.3276L76.0457 87.5618C75.9609 87.8391 75.8124 88.0737 75.6215 88.2657C75.4306 88.4577 75.1548 88.607 74.8154 88.7136C74.4761 88.8203 74.0518 88.9056 73.5215 88.9269C72.9912 88.9696 72.3548 88.9696 71.6336 88.9696C70.9124 88.9696 70.2548 88.9483 69.7458 88.8843C69.2154 88.8203 68.7912 88.735 68.4518 88.6283C68.1124 88.5003 67.8367 88.351 67.6457 88.1804C67.4548 88.0097 67.3276 87.7964 67.2427 87.5618L55.3851 52.9423H55.3215V87.6044C55.3215 87.8177 55.2579 88.031 55.1518 88.2017C55.0245 88.3723 54.8124 88.5216 54.473 88.6283C54.1548 88.735 53.7306 88.8203 53.2215 88.8843C52.7124 88.9483 52.0548 88.9909 51.2488 88.9909C50.4639 88.9909 49.8064 88.9483 49.2761 88.8843C48.7457 88.8203 48.3215 88.735 48.0245 88.6283C47.7276 88.5216 47.4942 88.3723 47.367 88.2017C47.2397 88.031 47.1973 87.8391 47.1973 87.6044V49.6361C47.1973 48.5269 47.4942 47.6523 48.0882 47.0764C48.6821 46.4791 49.467 46.1805 50.4427 46.1805H56.0639C57.0609 46.1805 57.9306 46.2658 58.6518 46.4365C59.373 46.6071 59.9882 46.8844 60.5185 47.247C61.0488 47.631 61.473 48.1429 61.8336 48.7615C62.173 49.3801 62.4912 50.1693 62.7457 51.0865L71.9094 76.4699H72.0367L81.5185 51.1505C81.7942 50.2333 82.1124 49.4441 82.4518 48.8042C82.7912 48.1643 83.173 47.6523 83.6397 47.247C84.0851 46.8418 84.6154 46.5645 85.2306 46.4151C85.8457 46.2445 86.5457 46.1592 87.3518 46.1592H93.1427C93.7367 46.1592 94.2458 46.2445 94.67 46.3938C95.0942 46.5431 95.4548 46.7778 95.7094 47.0764C95.9851 47.375 96.1973 47.7376 96.3245 48.1643C96.473 48.5909 96.5367 49.0815 96.5367 49.6361V87.6044Z" fill="#7BEFFF"/>
<path d="M138.155 85.3862C138.155 86.0261 138.134 86.5594 138.07 86.986C138.006 87.4126 137.943 87.7539 137.816 88.0312C137.709 88.2872 137.561 88.4791 137.413 88.6071C137.243 88.7351 137.073 88.7991 136.882 88.7991H110.452C109.731 88.7991 109.137 88.5858 108.628 88.1592C108.14 87.7326 107.885 87.0287 107.885 86.0688V48.911C107.885 47.9511 108.14 47.2472 108.628 46.8206C109.116 46.394 109.731 46.1807 110.452 46.1807H136.755C136.946 46.1807 137.137 46.2447 137.285 46.3513C137.434 46.458 137.561 46.6499 137.688 46.9272C137.794 47.2045 137.879 47.5458 137.943 47.9724C138.006 48.399 138.028 48.9536 138.028 49.5936C138.028 50.2121 138.006 50.7241 137.943 51.1507C137.879 51.5773 137.816 51.9186 137.688 52.1959C137.561 52.4732 137.455 52.6438 137.285 52.7718C137.137 52.8998 136.967 52.9638 136.755 52.9638H116.476V63.3731H134.422C134.613 63.3731 134.803 63.4371 134.952 63.5651C135.122 63.693 135.249 63.8637 135.355 64.1197C135.461 64.3756 135.546 64.7169 135.609 65.1435C135.673 65.5701 135.694 66.0821 135.694 66.7007C135.694 67.3406 135.673 67.8525 135.609 68.2791C135.546 68.7057 135.482 69.0257 135.355 69.2816C135.249 69.5376 135.1 69.7083 134.952 69.8149C134.782 69.9216 134.613 69.9856 134.422 69.9856H116.476V81.9947H136.882C137.073 81.9947 137.264 82.0586 137.413 82.1866C137.582 82.3146 137.709 82.5066 137.816 82.7626C137.922 83.0185 138.006 83.3811 138.07 83.8078C138.134 84.213 138.155 84.7463 138.155 85.3862Z" fill="#7BEFFF"/>
<path d="M80.6916 118.704C80.6916 122.608 80.1825 125.957 79.1643 128.73C78.1462 131.503 76.6825 133.764 74.7946 135.534C72.9068 137.283 70.5946 138.585 67.8795 139.395C65.1643 140.227 61.9189 140.632 58.1643 140.632H48.0462C47.3249 140.632 46.731 140.419 46.2219 139.992C45.734 139.566 45.4795 138.862 45.4795 137.902V100.765C45.4795 99.8056 45.734 99.1017 46.2219 98.6751C46.7098 98.2485 47.3249 98.0352 48.0462 98.0352H58.9068C62.6825 98.0352 65.8855 98.4831 68.5159 99.3577C71.1462 100.254 73.3522 101.576 75.1552 103.304C76.9583 105.053 78.3158 107.207 79.2704 109.767C80.2249 112.369 80.6916 115.334 80.6916 118.704ZM71.7825 119.003C71.7825 116.977 71.5492 115.1 71.0825 113.372C70.6159 111.644 69.8522 110.13 68.834 108.871C67.7946 107.591 66.4583 106.61 64.8462 105.885C63.2128 105.181 61.0916 104.818 58.4401 104.818H54.0916V133.785H58.5674C60.9219 133.785 62.9159 133.487 64.528 132.868C66.1401 132.249 67.4977 131.332 68.5795 130.095C69.6613 128.858 70.4674 127.322 70.9977 125.466C71.528 123.61 71.7825 121.477 71.7825 119.003Z" fill="#7BEFFF"/>
<path d="M96.5371 139.459C96.5371 139.672 96.4735 139.886 96.325 140.056C96.1765 140.227 95.9432 140.376 95.625 140.483C95.3068 140.59 94.8614 140.675 94.3099 140.739C93.7584 140.803 93.0584 140.846 92.2099 140.846C91.3826 140.846 90.6826 140.803 90.1311 140.739C89.5796 140.675 89.1341 140.59 88.8159 140.483C88.4977 140.376 88.2644 140.227 88.1159 140.056C87.9674 139.886 87.9038 139.694 87.9038 139.459V99.2298C87.9038 99.0164 87.9674 98.8031 88.1159 98.6325C88.2644 98.4619 88.4978 98.3125 88.8371 98.2059C89.1765 98.0992 89.622 98.0139 90.1523 97.9499C90.7038 97.8859 91.3826 97.8433 92.2099 97.8433C93.0584 97.8433 93.7584 97.8859 94.3099 97.9499C94.8614 98.0139 95.2856 98.0992 95.625 98.2059C95.9644 98.3125 96.1765 98.4619 96.325 98.6325C96.4735 98.8031 96.5371 98.9951 96.5371 99.2298V139.459Z" fill="#7BEFFF"/>
<path d="M139.386 137.411C139.64 138.201 139.81 138.819 139.874 139.288C139.937 139.758 139.852 140.099 139.619 140.334C139.386 140.568 138.961 140.718 138.346 140.76C137.731 140.803 136.904 140.846 135.822 140.846C134.719 140.846 133.849 140.824 133.213 140.803C132.598 140.782 132.11 140.696 131.792 140.611C131.474 140.504 131.24 140.376 131.113 140.206C130.986 140.035 130.88 139.8 130.795 139.523L127.952 130.97H112.043L109.349 139.288C109.265 139.587 109.158 139.843 109.01 140.056C108.861 140.27 108.628 140.419 108.331 140.547C108.013 140.675 107.568 140.76 106.995 140.803C106.422 140.846 105.658 140.867 104.725 140.867C103.728 140.867 102.943 140.824 102.371 140.76C101.798 140.696 101.416 140.526 101.183 140.291C100.971 140.035 100.886 139.694 100.949 139.224C101.013 138.755 101.183 138.158 101.437 137.39L114.504 99.6137C114.631 99.251 114.78 98.9311 114.971 98.7178C115.14 98.4831 115.416 98.3125 115.798 98.1845C116.18 98.0565 116.71 97.9925 117.389 97.9499C118.068 97.9072 118.958 97.9072 120.083 97.9072C121.377 97.9072 122.395 97.9285 123.158 97.9499C123.922 97.9712 124.516 98.0565 124.94 98.1845C125.365 98.3125 125.662 98.4831 125.852 98.7391C126.043 98.9738 126.192 99.315 126.319 99.7203L139.386 137.411ZM119.955 106.162H119.913L113.931 124.272H125.937L119.955 106.162Z" fill="#7BEFFF"/>
<path d="M24.9241 121.605C25.2847 121.605 25.6029 121.605 25.8787 121.648C26.1332 121.669 26.3666 121.712 26.5363 121.755C26.7272 121.797 26.8757 121.861 27.0241 121.925C27.1514 122.011 27.2999 122.117 27.4908 122.288C27.6605 122.459 27.8726 122.779 28.1484 123.248C28.4241 123.717 28.6787 124.293 28.912 124.976C29.1454 125.658 29.3575 126.426 29.5272 127.301C29.6969 128.175 29.7817 129.114 29.7817 130.138C29.7817 132.121 29.4847 133.913 28.8696 135.513C28.2544 137.113 27.3635 138.457 26.1544 139.587C24.9454 140.718 23.4393 141.571 21.6363 142.168C19.8332 142.765 17.712 143.064 15.315 143.064C12.8757 143.064 10.6908 142.744 8.80293 142.083C6.91505 141.422 5.30293 140.504 4.0302 139.331C2.73626 138.158 1.7605 136.75 1.10293 135.086C0.445351 133.423 0.105957 131.631 0.105957 129.647C0.105957 128.837 0.169593 128.069 0.296866 127.322C0.424139 126.575 0.615048 125.893 0.827169 125.253C1.03929 124.613 1.29384 124.058 1.56959 123.547C1.84535 123.035 2.0999 122.693 2.29081 122.48C2.48171 122.288 2.65141 122.139 2.7999 122.075C2.94838 122.011 3.09687 121.947 3.30899 121.904C3.52111 121.861 3.75444 121.819 4.05141 121.797C4.32717 121.776 4.68778 121.755 5.09081 121.755C5.53626 121.755 5.91808 121.776 6.21505 121.797C6.53323 121.819 6.78778 121.883 6.97868 121.947C7.16959 122.032 7.31808 122.117 7.40293 122.224C7.48778 122.331 7.5302 122.437 7.5302 122.587C7.5302 122.8 7.40293 123.099 7.14838 123.44C6.8302 123.717 6.53323 124.144 6.21505 124.698C5.89687 125.253 5.5999 125.893 5.34535 126.639C5.09081 127.386 4.96353 128.282 4.96353 129.327C4.96353 130.479 5.19687 131.503 5.66353 132.399C6.1302 133.295 6.78778 134.063 7.65747 134.702C8.52717 135.342 9.56656 135.812 10.7969 136.153C12.0272 136.494 13.406 136.644 14.9544 136.644C16.6514 136.644 18.115 136.473 19.3454 136.11C20.5757 135.769 21.5938 135.257 22.3999 134.617C23.206 133.977 23.7999 133.188 24.1817 132.271C24.5635 131.354 24.7757 130.33 24.7757 129.178C24.7757 128.133 24.6484 127.237 24.415 126.469C24.1605 125.701 23.906 125.061 23.609 124.506C23.312 123.952 23.0363 123.525 22.8029 123.163C22.5696 122.8 22.4423 122.544 22.4423 122.352C22.4423 122.203 22.4635 122.075 22.5272 121.989C22.5908 121.904 22.6969 121.819 22.8878 121.776C23.0575 121.712 23.312 121.669 23.6302 121.648C23.9696 121.605 24.3938 121.605 24.9241 121.605Z" fill="white"/>
<path d="M14.5727 83.5308C16.9697 83.5308 19.0909 83.8294 20.9788 84.4266C22.8667 85.0239 24.4576 85.9198 25.7727 87.093C27.0879 88.2661 28.0849 89.738 28.7848 91.4657C29.4848 93.1935 29.8242 95.2199 29.8242 97.5023C29.8242 99.7633 29.5273 101.726 28.9545 103.39C28.3606 105.075 27.4697 106.461 26.2818 107.592C25.0939 108.722 23.5455 109.554 21.7 110.109C19.8121 110.642 17.6061 110.919 15.0818 110.919C12.7485 110.919 10.6697 110.621 8.80303 110.023C6.93636 109.426 5.36667 108.53 4.05152 107.357C2.75758 106.184 1.73939 104.712 1.03939 102.984C0.339394 101.256 0 99.2301 0 96.9477C0 94.7506 0.29697 92.8309 0.869697 91.1458C1.44242 89.4607 2.33333 88.0742 3.54242 86.9436C4.75152 85.8131 6.25758 84.9599 8.08182 84.384C9.90606 83.8081 12.0697 83.5308 14.5727 83.5308ZM14.8909 89.6953C13.3848 89.6953 12.0061 89.8233 10.7545 90.0579C9.52424 90.2925 8.46364 90.6978 7.57273 91.2738C6.68182 91.8497 6.00303 92.6176 5.53636 93.5561C5.04848 94.516 4.81515 95.7105 4.81515 97.1397C4.81515 98.5901 5.09091 99.7846 5.62121 100.766C6.17273 101.726 6.89394 102.515 7.78485 103.112C8.69697 103.709 9.73636 104.136 10.9455 104.371C12.1545 104.627 13.4273 104.733 14.7848 104.733C16.3545 104.733 17.7758 104.605 19.0273 104.371C20.2788 104.136 21.3606 103.731 22.2515 103.155C23.1424 102.579 23.8212 101.832 24.2879 100.873C24.7545 99.9126 24.9879 98.7181 24.9879 97.2676C24.9879 95.8172 24.7121 94.6227 24.1818 93.6414C23.6515 92.6816 22.9303 91.8923 21.997 91.2951C21.0849 90.6978 20.003 90.2712 18.7727 90.0366C17.5424 89.8019 16.2697 89.6953 14.8909 89.6953Z" fill="white"/>
<path d="M27.2579 48.6978C27.5973 48.6978 27.8942 48.7617 28.17 48.8684C28.4457 48.9964 28.6579 49.1457 28.8276 49.359C28.9973 49.551 29.1457 49.8069 29.2094 50.0629C29.2942 50.3402 29.3367 50.6175 29.3367 50.8948V53.3905C29.3367 53.9237 29.2942 54.3717 29.1882 54.7343C29.0821 55.1182 28.8912 55.4595 28.6154 55.7795C28.3397 56.0995 27.9791 56.3981 27.5124 56.6967C27.0457 56.9953 26.4518 57.3366 25.7094 57.6992L12.2609 64.909C11.4548 65.3356 10.6064 65.7622 9.67302 66.1888C8.73968 66.6154 7.84877 66.9994 6.97908 67.362V67.4046C8.03968 67.3406 9.10029 67.298 10.1609 67.2767C11.2215 67.2553 12.3245 67.234 13.4488 67.234H28.5094C28.6579 67.234 28.7851 67.2767 28.9124 67.362C29.0397 67.4473 29.1245 67.5966 29.2094 67.7886C29.2942 67.9806 29.3579 68.2579 29.4003 68.5991C29.4427 68.9404 29.4639 69.3884 29.4639 69.9216C29.4639 70.4336 29.4427 70.8815 29.4003 71.2228C29.3579 71.5641 29.2942 71.8414 29.2094 72.0334C29.1245 72.2253 29.0185 72.3533 28.9124 72.4386C28.7851 72.524 28.6579 72.5453 28.5094 72.5453H2.60938C1.90938 72.5453 1.40029 72.332 1.03968 71.9267C0.70029 71.5214 0.509381 71.0095 0.509381 70.4122V67.2553C0.509381 66.6794 0.551805 66.2101 0.657866 65.8262C0.763926 65.4422 0.912411 65.1009 1.14574 64.781C1.35787 64.4824 1.67605 64.1837 2.07908 63.9278C2.48211 63.6505 2.94878 63.3945 3.54271 63.0959L14.0639 57.4646C14.7003 57.1446 15.3367 56.8034 15.9518 56.4834C16.567 56.1634 17.1821 55.8435 17.7973 55.5449C18.4124 55.2462 19.0276 54.9476 19.6003 54.6703C20.1942 54.393 20.7882 54.1157 21.3821 53.8384V53.8171C20.3427 53.8597 19.2609 53.9024 18.1367 53.9237C16.97 53.9877 15.9094 53.9877 14.8912 53.9877H1.37908C1.23059 53.9877 1.10332 53.9451 0.976048 53.8597C0.848775 53.7744 0.763926 53.6251 0.657866 53.4118C0.573017 53.1985 0.509381 52.9212 0.466957 52.5799C0.424532 52.2386 0.40332 51.7907 0.40332 51.2574C0.40332 50.7455 0.424532 50.3189 0.466957 49.9776C0.509381 49.6363 0.573017 49.359 0.657866 49.1884C0.742714 48.9964 0.848775 48.8684 0.976048 48.8044C1.10332 48.7404 1.23059 48.6978 1.37908 48.6978H27.2579Z" fill="white"/>
<path d="M44.8215 26.9832C45.0336 27.2605 45.1821 27.5378 45.2458 27.8151C45.3094 28.0924 45.3306 28.3697 45.2882 28.647C45.2458 28.903 45.1397 29.1589 44.97 29.3936C44.8003 29.6282 44.6094 29.8415 44.3973 30.0122L42.4245 31.548C42.0215 31.8679 41.6397 32.1025 41.2791 32.2732C40.9185 32.4225 40.5367 32.4865 40.1124 32.4652C39.6882 32.4438 39.2215 32.3372 38.6912 32.1665C38.1609 31.9746 37.5245 31.7186 36.7821 31.356L22.8245 25.1915C21.9973 24.8288 21.1276 24.4022 20.2155 23.9329C19.3245 23.4637 18.4548 22.9944 17.6488 22.5038L17.6064 22.5251C18.3064 23.3357 19.0064 24.1463 19.6852 24.9568C20.3639 25.7674 21.0639 26.6206 21.7427 27.5165L31.0549 39.4189C31.1397 39.5256 31.2033 39.6749 31.2033 39.8029C31.2033 39.9522 31.1609 40.1228 31.0549 40.2935C30.9488 40.4855 30.7791 40.6988 30.5245 40.9547C30.2912 41.2107 29.9518 41.488 29.5276 41.8293C29.1245 42.1492 28.7639 42.4052 28.467 42.5758C28.17 42.7465 27.9155 42.8745 27.7245 42.9171C27.5336 42.9811 27.3639 42.9811 27.2155 42.9385C27.0882 42.8958 26.9821 42.8105 26.8761 42.6825L10.8609 22.2478C10.4367 21.6932 10.267 21.16 10.373 20.6267C10.4791 20.0934 10.7549 19.6455 11.2215 19.2829L13.6821 17.3205C14.1276 16.9792 14.5306 16.7232 14.8912 16.5526C15.3155 16.4246 15.6973 16.3393 16.0791 16.3179C16.4609 16.2966 16.8639 16.3606 17.3306 16.5099C17.7761 16.6592 18.3064 16.8725 18.8791 17.1498L29.8033 21.9705C30.4609 22.2692 31.0973 22.5678 31.7336 22.8451C32.37 23.1437 32.9852 23.421 33.6003 23.7196C34.2155 24.0183 34.8094 24.3169 35.4033 24.6155C35.9973 24.9142 36.57 25.2128 37.1427 25.5114L37.1639 25.4901C36.4852 24.7008 35.7852 23.869 35.0852 22.9944C34.3639 22.1199 33.7064 21.2666 33.07 20.4774L24.7124 9.81212C24.6276 9.70547 24.5639 9.55616 24.5639 9.40684C24.5639 9.25753 24.6064 9.08689 24.7124 8.87358C24.8185 8.68161 24.9882 8.44697 25.2427 8.21233C25.4973 7.9777 25.8155 7.67907 26.2397 7.35911C26.6427 7.03915 26.9821 6.80452 27.2791 6.61254C27.5761 6.42057 27.8094 6.31391 28.0215 6.27125C28.2124 6.22859 28.3821 6.22859 28.5306 6.27125C28.6579 6.31391 28.7639 6.39924 28.87 6.52722L44.8215 26.9832Z" fill="white"/>
<path d="M67.3487 27.1112C67.3487 27.5378 67.3275 27.9004 67.2851 28.199C67.2426 28.4977 67.2002 28.7323 67.1154 28.9029C67.0305 29.0736 66.9457 29.2229 66.8396 29.2869C66.7336 29.3722 66.6063 29.4149 66.479 29.4149H52.0123C51.5245 29.4149 51.1214 29.2656 50.782 28.9883C50.4426 28.6896 50.2729 28.2204 50.2729 27.5591V2.32509C50.2729 1.66384 50.4426 1.19457 50.782 0.89594C51.1214 0.597312 51.5245 0.447998 52.0123 0.447998H66.3729C66.5002 0.447998 66.6275 0.490659 66.7335 0.554651C66.8396 0.618642 66.9245 0.767956 67.0093 0.938601C67.0729 1.13058 67.1366 1.36521 67.179 1.66384C67.2214 1.96247 67.2426 2.32509 67.2426 2.77303C67.2426 3.19964 67.2214 3.54093 67.179 3.83955C67.1366 4.13818 67.0942 4.37282 67.0093 4.54346C66.9245 4.71411 66.8396 4.86342 66.7335 4.92741C66.6275 5.01273 66.5214 5.0554 66.3729 5.0554H56.1063V12.1158H64.8032C64.9305 12.1158 65.0578 12.1585 65.1639 12.2438C65.2699 12.3291 65.376 12.4571 65.4396 12.6277C65.5245 12.7984 65.5669 13.033 65.6093 13.3316C65.6517 13.6303 65.6729 13.9716 65.6729 14.3982C65.6729 14.8248 65.6517 15.1874 65.6093 15.4647C65.5669 15.742 65.5245 15.9766 65.4396 16.1473C65.376 16.3179 65.2699 16.4459 65.1639 16.5099C65.0578 16.5739 64.9305 16.6379 64.8032 16.6379H56.1063V24.8075H66.479C66.6063 24.8075 66.7336 24.8501 66.8396 24.9355C66.9457 25.0208 67.0517 25.1488 67.1154 25.3194C67.179 25.4901 67.2426 25.7247 67.2851 26.0233C67.3275 26.322 67.3487 26.6846 67.3487 27.1112Z" fill="white"/>
<path d="M104.088 25.0207C104.088 25.3834 104.067 25.7033 104.046 25.9806C104.025 26.2366 103.982 26.4712 103.94 26.6419C103.898 26.8338 103.834 26.9831 103.77 27.1325C103.685 27.2604 103.579 27.4098 103.41 27.5804C103.24 27.751 102.922 27.9643 102.455 28.2416C101.988 28.4976 101.416 28.7749 100.737 29.0095C100.058 29.2655 99.2945 29.4575 98.4248 29.6281C97.5551 29.7988 96.6218 29.8841 95.6036 29.8841C93.6308 29.8841 91.849 29.5855 90.2581 28.9669C88.6672 28.3483 87.3308 27.4524 86.2066 26.2366C85.1036 25.0207 84.2339 23.5063 83.6399 21.6932C83.046 19.8801 82.749 17.747 82.749 15.3367C82.749 12.8837 83.0672 10.6866 83.7248 8.78819C84.3824 6.88977 85.2945 5.26865 86.4611 3.98881C87.6278 2.68765 89.0278 1.70644 90.6824 1.0452C92.3581 0.341289 94.1824 0 96.1551 0C96.9612 0 97.7248 0.0639917 98.4672 0.191975C99.2096 0.319958 99.8884 0.511933 100.525 0.725239C101.161 0.938544 101.713 1.19451 102.222 1.47181C102.731 1.7491 103.07 2.00507 103.282 2.19705C103.473 2.38902 103.622 2.55967 103.685 2.70898C103.77 2.83696 103.813 3.00761 103.855 3.22091C103.898 3.43422 103.94 3.66885 103.961 3.96748C103.982 4.24478 104.004 4.6074 104.004 5.01268C104.004 5.46062 103.982 5.84457 103.961 6.16453C103.94 6.48449 103.876 6.74045 103.813 6.93243C103.728 7.1244 103.643 7.27372 103.537 7.35904C103.431 7.44436 103.325 7.48702 103.176 7.48702C102.964 7.48702 102.667 7.35904 102.328 7.10307C101.988 6.84711 101.543 6.54848 101.013 6.22852C100.482 5.90856 99.8248 5.60993 99.0824 5.35397C98.3399 5.098 97.449 4.97002 96.4096 4.97002C95.2642 4.97002 94.246 5.20465 93.3551 5.67393C92.4642 6.1432 91.7005 6.82578 91.0642 7.679C90.4066 8.53222 89.9399 9.59875 89.6005 10.8359C89.2612 12.0731 89.1127 13.4596 89.1127 15.0167C89.1127 16.7231 89.2824 18.195 89.643 19.4321C89.9824 20.6693 90.4914 21.6932 91.1278 22.5037C91.7642 23.3143 92.549 23.9115 93.4611 24.2955C94.3733 24.7008 95.3914 24.8927 96.5369 24.8927C97.5763 24.8927 98.4672 24.7648 99.2308 24.5301C99.9945 24.2955 100.631 24.0182 101.182 23.7196C101.734 23.4209 102.158 23.1436 102.519 22.909C102.858 22.6744 103.134 22.5464 103.325 22.5464C103.473 22.5464 103.601 22.5677 103.685 22.6317C103.77 22.6957 103.855 22.8024 103.898 22.9943C103.961 23.165 104.004 23.4209 104.025 23.7409C104.067 24.0609 104.088 24.4875 104.088 25.0207Z" fill="white"/>
<path d="M140.001 7.1457C140.001 7.57231 139.98 9.7267 139.937 10.0253C139.895 10.324 139.852 10.5799 139.767 10.7719C139.683 10.9639 139.598 11.0919 139.492 11.1772C139.386 11.2625 139.258 11.3052 139.131 11.3052L131.919 8.21223V28.5829C131.919 28.7322 131.877 28.8602 131.77 28.9882C131.664 29.1162 131.516 29.2015 131.283 29.2868C131.07 29.3721 130.752 29.4148 130.392 29.4575C130.01 29.5001 129.543 29.5214 128.97 29.5214C128.398 29.5214 127.931 29.5001 127.549 29.4575C127.167 29.4148 126.87 29.3508 126.658 29.2868C126.446 29.2228 126.277 29.1162 126.17 28.9882C126.064 28.8602 126.022 28.7322 126.022 28.5829V8.23356L118.81 11.3265C118.661 11.3265 118.534 11.2838 118.428 11.1985C118.322 11.1132 118.237 10.9639 118.152 10.7932C118.089 10.6012 118.025 10.3666 117.983 10.0467C117.94 9.74803 117.919 7.59364 117.919 7.16703C117.919 6.71909 117.94 6.33514 117.983 6.01518C118.025 5.69522 118.067 5.46059 118.152 5.26861C118.237 5.07664 118.322 4.94865 118.428 4.86333C118.534 4.77801 118.661 4.73535 118.81 4.73535L128.949 0.469238L139.089 4.73535C139.216 4.73535 139.343 4.77801 139.449 4.86333C139.555 4.94865 139.661 5.07664 139.725 5.26861C139.789 5.46059 139.852 5.69522 139.895 6.01518C140.001 6.31381 140.001 6.69776 140.001 7.1457Z" fill="white"/>
</g>
<defs>
<clipPath id="clip0">
<rect width="140" height="143" fill="white"/>
</clipPath>
</defs>
</svg>
