<svg width="12" height="12" viewBox="0 0 12 12" fill="none" xmlns="http://www.w3.org/2000/svg">
<g clip-path="url(#clip0)">
<path d="M9.19092 10.0968C9.19092 10.7197 8.68436 11.2272 8.06268 11.2272H1.89575C1.27406 11.231 0.767509 10.7235 0.767509 10.0968V3.92185C0.767509 3.29897 1.27406 2.79145 1.89575 2.79145H6.14007V2.02246H1.89575C0.851935 2.02246 0 2.87219 0 3.92185V10.0968C0 11.1465 0.851935 11.9962 1.89575 11.9962H8.05884C9.10649 11.9962 9.95459 11.1426 9.95459 10.0968V5.84431H9.18708V10.0968H9.19092Z" fill="#000000"/>
<path d="M8.54178 1.32976L5.3855 4.49121L7.51803 6.62845L10.6743 3.46699L8.54178 1.32976Z" fill="#000000"/>
<path d="M9.42506 0.442181L9.00293 0.865123L11.1366 3.0029L11.5587 2.57996C12.1497 1.99168 12.1497 1.0343 11.5587 0.442181C10.9716 -0.146092 10.016 -0.146092 9.42506 0.442181Z" fill="#000000"/>
<path d="M4.91963 4.91797L3.94873 8.07081L7.09168 7.0942L4.91963 4.91797Z" fill="#000000"/>
</g>
<defs>
<clipPath id="clip0">
<rect width="12" height="12" fill="white"/>
</clipPath>
</defs>
</svg>
