<svg width="10" height="10" viewBox="0 0 10 10" fill="none" xmlns="http://www.w3.org/2000/svg">
<g clip-path="url(#clip0)">
<path d="M2.94149 0H1.30939C0.60662 0 0.0344238 0.570008 0.0344238 1.27008V2.84239C0.0344238 3.54246 0.60662 4.11247 1.30939 4.11247H2.94149C3.64425 4.11247 4.21645 3.54246 4.21645 2.84239V1.27008C4.21645 0.570008 3.64425 0 2.94149 0ZM3.4484 2.84239C3.4484 3.12165 3.22183 3.34736 2.94149 3.34736H1.30939C1.02905 3.34736 0.802473 3.12165 0.802473 2.84239V1.27008C0.802473 0.990819 1.02905 0.765111 1.30939 0.765111H2.94149C3.22183 0.765111 3.4484 0.990819 3.4484 1.27008V2.84239Z" fill="#94D7E0"/>
<path d="M8.72496 0H6.02911C5.32635 0 4.75415 0.570008 4.75415 1.27008V3.88676C4.75415 4.58684 5.32635 5.15685 6.02911 5.15685H8.72496C9.42773 5.15685 9.99993 4.58684 9.99993 3.88676V1.27008C9.99993 0.570008 9.42773 0 8.72496 0ZM9.23188 3.88676C9.23188 4.16603 9.0053 4.39174 8.72496 4.39174H6.02911C5.74877 4.39174 5.5222 4.16603 5.5222 3.88676V1.27008C5.5222 0.990819 5.74877 0.765111 6.02911 0.765111H8.72496C9.0053 0.765111 9.23188 0.990819 9.23188 1.27008V3.88676Z" fill="#94D7E0"/>
<path d="M2.81874 4.73633H1.27496C0.572197 4.73633 0 5.30634 0 6.00641V8.62309C0 9.32317 0.572197 9.89318 1.27496 9.89318H2.81874C3.52151 9.89318 4.0937 9.32317 4.0937 8.62309V6.00641C4.0937 5.30634 3.52151 4.73633 2.81874 4.73633ZM3.32565 8.62309C3.32565 8.90236 3.09908 9.12807 2.81874 9.12807H1.27496C0.994624 9.12807 0.768049 8.90236 0.768049 8.62309V6.00641C0.768049 5.72715 0.994624 5.50144 1.27496 5.50144H2.81874C3.09908 5.50144 3.32565 5.72715 3.32565 6.00641V8.62309Z" fill="#94D7E0"/>
<path d="M8.69051 5.92188H6.06378C5.36101 5.92188 4.78882 6.49188 4.78882 7.19196V8.72983C4.78882 9.42991 5.36101 9.99992 6.06378 9.99992H8.69051C9.39327 9.99992 9.96547 9.42991 9.96547 8.72983V7.19196C9.96547 6.49188 9.39327 5.92188 8.69051 5.92188ZM9.19742 8.73366C9.19742 9.01292 8.97085 9.23863 8.69051 9.23863H6.06378C5.78344 9.23863 5.55687 9.01292 5.55687 8.73366V7.19196C5.55687 6.91269 5.78344 6.68699 6.06378 6.68699H8.69051C8.97085 6.68699 9.19742 6.91269 9.19742 7.19196V8.73366Z" fill="#94D7E0"/>
</g>
<defs>
<clipPath id="clip0">
<rect width="10" height="10" fill="white"/>
</clipPath>
</defs>
</svg>
