<svg width="10" height="10" viewBox="0 0 10 10" fill="none" xmlns="http://www.w3.org/2000/svg">
<path d="M8.09634 0H1.90366C0.855491 0 0 0.855491 0 1.90366V8.09249C0 9.14451 0.855491 9.99615 1.90366 9.99615H8.09249C9.14451 9.99615 9.99615 9.14065 9.99615 8.09249V1.90366C10 0.855491 9.14451 0 8.09634 0ZM9.22929 8.09634C9.22929 8.72062 8.72062 9.22929 8.09634 9.22929H1.90366C1.27938 9.22929 0.770713 8.72062 0.770713 8.09634V1.90366C0.770713 1.27938 1.27938 0.770713 1.90366 0.770713H8.09249C8.71676 0.770713 9.22543 1.27938 9.22543 1.90366V8.09634H9.22929Z" fill="#94D7E0"/>
<path d="M7.78038 2.4082H2.32373V3.17892H7.78038V2.4082Z" fill="#94D7E0"/>
<path d="M7.78038 4.52832H2.32373V5.29903H7.78038V4.52832Z" fill="#94D7E0"/>
<path d="M7.78038 6.64746H2.32373V7.41817H7.78038V6.64746Z" fill="#94D7E0"/>
</svg>
