<svg width="66" height="68" viewBox="0 0 66 68" fill="none" xmlns="http://www.w3.org/2000/svg">
<g clip-path="url(#clip0)">
<path d="M45.51 41.0699C45.51 41.1699 45.48 41.2699 45.43 41.3499C45.37 41.4299 45.27 41.4999 45.12 41.5499C44.97 41.5999 44.77 41.6399 44.53 41.6699C44.28 41.6999 43.97 41.7199 43.59 41.7199C43.22 41.7199 42.91 41.6999 42.66 41.6699C42.41 41.6399 42.22 41.5999 42.07 41.5499C41.92 41.4999 41.82 41.4299 41.76 41.3499C41.7 41.2699 41.67 41.1799 41.67 41.0699V24.8199H41.64L35.85 41.0499C35.81 41.1799 35.74 41.2899 35.65 41.3799C35.56 41.4699 35.43 41.5399 35.27 41.5899C35.11 41.6399 34.91 41.6799 34.66 41.6899C34.41 41.7099 34.11 41.7099 33.77 41.7099C33.43 41.7099 33.12 41.6999 32.88 41.6699C32.63 41.6399 32.43 41.5999 32.27 41.5499C32.11 41.4899 31.98 41.4199 31.89 41.3399C31.8 41.2599 31.74 41.1599 31.7 41.0499L26.11 24.8199H26.08V41.0699C26.08 41.1699 26.05 41.2699 26 41.3499C25.94 41.4299 25.84 41.4999 25.68 41.5499C25.53 41.5999 25.33 41.6399 25.09 41.6699C24.85 41.6999 24.54 41.7199 24.16 41.7199C23.79 41.7199 23.48 41.6999 23.23 41.6699C22.98 41.6399 22.78 41.5999 22.64 41.5499C22.5 41.4999 22.39 41.4299 22.33 41.3499C22.27 41.2699 22.25 41.1799 22.25 41.0699V23.2699C22.25 22.7499 22.39 22.3399 22.67 22.0699C22.95 21.7899 23.32 21.6499 23.78 21.6499H26.43C26.9 21.6499 27.31 21.6899 27.65 21.7699C27.99 21.8499 28.28 21.9799 28.53 22.1499C28.78 22.3299 28.98 22.5699 29.15 22.8599C29.31 23.1499 29.46 23.5199 29.58 23.9499L33.9 35.8499H33.96L38.43 23.9799C38.56 23.5499 38.71 23.1799 38.87 22.8799C39.03 22.5799 39.21 22.3399 39.43 22.1499C39.64 21.9599 39.89 21.8299 40.18 21.7599C40.47 21.6799 40.8 21.6399 41.18 21.6399H43.91C44.19 21.6399 44.43 21.6799 44.63 21.7499C44.83 21.8199 45 21.9299 45.12 22.0699C45.25 22.2099 45.35 22.3799 45.41 22.5799C45.48 22.7799 45.51 23.0099 45.51 23.2699V41.0699Z" fill="#7BEFFF"/>
<path d="M65.1299 40.0299C65.1299 40.3299 65.1199 40.5799 65.0899 40.7799C65.0599 40.9799 65.0299 41.1399 64.9699 41.2699C64.9199 41.3899 64.8499 41.4799 64.7799 41.5399C64.6999 41.5999 64.6199 41.6299 64.5299 41.6299H52.0699C51.7299 41.6299 51.4499 41.5299 51.2099 41.3299C50.9799 41.1299 50.8599 40.7999 50.8599 40.3499V22.9299C50.8599 22.4799 50.9799 22.1499 51.2099 21.9499C51.4399 21.7499 51.7299 21.6499 52.0699 21.6499H64.4699C64.5599 21.6499 64.6499 21.6799 64.7199 21.7299C64.7899 21.7799 64.8499 21.8699 64.9099 21.9999C64.9599 22.1299 64.9999 22.2899 65.0299 22.4899C65.0599 22.6899 65.0699 22.9499 65.0699 23.2499C65.0699 23.5399 65.0599 23.7799 65.0299 23.9799C64.9999 24.1799 64.9699 24.3399 64.9099 24.4699C64.8499 24.5999 64.7999 24.6799 64.7199 24.7399C64.6499 24.7999 64.5699 24.8299 64.4699 24.8299H54.9099V29.7099H63.3699C63.4599 29.7099 63.5499 29.7399 63.6199 29.7999C63.6999 29.8599 63.7599 29.9399 63.8099 30.0599C63.8599 30.1799 63.8999 30.3399 63.9299 30.5399C63.9599 30.7399 63.9699 30.9799 63.9699 31.2699C63.9699 31.5699 63.9599 31.8099 63.9299 32.0099C63.8999 32.2099 63.8699 32.3599 63.8099 32.4799C63.7599 32.5999 63.6899 32.6799 63.6199 32.7299C63.5399 32.7799 63.4599 32.8099 63.3699 32.8099H54.9099V38.4399H64.5299C64.6199 38.4399 64.7099 38.4699 64.7799 38.5299C64.8599 38.5899 64.9199 38.6799 64.9699 38.7999C65.0199 38.9199 65.0599 39.0899 65.0899 39.2899C65.1199 39.4799 65.1299 39.7299 65.1299 40.0299Z" fill="#7BEFFF"/>
<path d="M38.0399 55.65C38.0399 57.48 37.7999 59.05 37.3199 60.35C36.8399 61.65 36.1499 62.71 35.2599 63.54C34.3699 64.36 33.2799 64.97 31.9999 65.35C30.7199 65.74 29.1899 65.93 27.4199 65.93H22.6499C22.3099 65.93 22.0299 65.83 21.7899 65.63C21.5599 65.43 21.4399 65.1 21.4399 64.65V47.24C21.4399 46.79 21.5599 46.46 21.7899 46.26C22.0199 46.06 22.3099 45.96 22.6499 45.96H27.7699C29.5499 45.96 31.0599 46.17 32.2999 46.58C33.5399 47 34.5799 47.62 35.4299 48.43C36.2799 49.25 36.9199 50.26 37.3699 51.46C37.8199 52.68 38.0399 54.07 38.0399 55.65ZM33.8399 55.79C33.8399 54.84 33.7299 53.96 33.5099 53.15C33.2899 52.34 32.9299 51.63 32.4499 51.04C31.9599 50.44 31.3299 49.98 30.5699 49.64C29.7999 49.31 28.7999 49.14 27.5499 49.14H25.4999V62.72H27.6099C28.7199 62.72 29.6599 62.58 30.4199 62.29C31.1799 62 31.8199 61.57 32.3299 60.99C32.8399 60.41 33.2199 59.69 33.4699 58.82C33.7199 57.95 33.8399 56.95 33.8399 55.79Z" fill="#7BEFFF"/>
<path d="M45.5099 65.3799C45.5099 65.4799 45.4799 65.5799 45.4099 65.6599C45.3399 65.7399 45.2299 65.8099 45.0799 65.8599C44.9299 65.9099 44.7199 65.9499 44.4599 65.9799C44.1999 66.0099 43.8699 66.0299 43.4699 66.0299C43.0799 66.0299 42.7499 66.0099 42.4899 65.9799C42.2299 65.9499 42.0199 65.9099 41.8699 65.8599C41.7199 65.8099 41.6099 65.7399 41.5399 65.6599C41.4699 65.5799 41.4399 65.4899 41.4399 65.3799V46.5199C41.4399 46.4199 41.4699 46.3199 41.5399 46.2399C41.6099 46.1599 41.7199 46.0899 41.8799 46.0399C42.0399 45.9899 42.2499 45.9499 42.4999 45.9199C42.7599 45.8899 43.0799 45.8699 43.4699 45.8699C43.8699 45.8699 44.1999 45.8899 44.4599 45.9199C44.7199 45.9499 44.9199 45.9899 45.0799 46.0399C45.2399 46.0899 45.3399 46.1599 45.4099 46.2399C45.4799 46.3199 45.5099 46.4099 45.5099 46.5199V65.3799Z" fill="#7BEFFF"/>
<path d="M65.7098 64.4199C65.8298 64.7899 65.9098 65.0799 65.9398 65.2999C65.9698 65.5199 65.9298 65.6799 65.8198 65.7899C65.7098 65.8999 65.5098 65.9699 65.2198 65.9899C64.9298 66.0099 64.5398 66.0299 64.0298 66.0299C63.5098 66.0299 63.0998 66.0199 62.7998 66.0099C62.5098 65.9999 62.2798 65.9599 62.1298 65.9199C61.9798 65.8699 61.8698 65.8099 61.8098 65.7299C61.7498 65.6499 61.6998 65.5399 61.6598 65.4099L60.3198 61.3999H52.8198L51.5498 65.2999C51.5098 65.4399 51.4598 65.5599 51.3898 65.6599C51.3198 65.7599 51.2098 65.8299 51.0698 65.8899C50.9198 65.9499 50.7098 65.9899 50.4398 66.0099C50.1698 66.0299 49.8098 66.0399 49.3698 66.0399C48.8998 66.0399 48.5298 66.0199 48.2598 65.9899C47.9898 65.9599 47.8098 65.8799 47.6998 65.7699C47.5998 65.6499 47.5598 65.4899 47.5898 65.2699C47.6198 65.0499 47.6998 64.7699 47.8198 64.4099L53.9798 46.6999C54.0398 46.5299 54.1098 46.3799 54.1998 46.2799C54.2798 46.1699 54.4098 46.0899 54.5898 46.0299C54.7698 45.9699 55.0198 45.9399 55.3398 45.9199C55.6598 45.8999 56.0798 45.8999 56.6098 45.8999C57.2198 45.8999 57.6998 45.9099 58.0598 45.9199C58.4198 45.9299 58.6998 45.9699 58.8998 46.0299C59.0998 46.0899 59.2398 46.1699 59.3298 46.2899C59.4198 46.3999 59.4898 46.5599 59.5498 46.7499L65.7098 64.4199ZM56.5498 49.7699H56.5298L53.7098 58.2599H59.3698L56.5498 49.7699Z" fill="#7BEFFF"/>
<path d="M11.75 57.01C11.92 57.01 12.07 57.01 12.2 57.03C12.32 57.04 12.43 57.06 12.51 57.08C12.6 57.1 12.67 57.13 12.74 57.16C12.8 57.2 12.87 57.25 12.96 57.33C13.04 57.41 13.14 57.56 13.27 57.78C13.4 58 13.52 58.27 13.63 58.59C13.74 58.91 13.84 59.27 13.92 59.68C14 60.09 14.04 60.53 14.04 61.01C14.04 61.94 13.9 62.78 13.61 63.53C13.32 64.28 12.9 64.91 12.33 65.44C11.76 65.97 11.05 66.37 10.2 66.65C9.35005 66.93 8.35005 67.07 7.22005 67.07C6.07005 67.07 5.04005 66.92 4.15005 66.61C3.26005 66.3 2.50005 65.87 1.90005 65.32C1.29005 64.77 0.830049 64.11 0.520049 63.33C0.210049 62.55 0.0500488 61.71 0.0500488 60.78C0.0500488 60.4 0.0800488 60.04 0.140049 59.69C0.200049 59.34 0.290049 59.02 0.390049 58.72C0.490049 58.42 0.610049 58.16 0.740049 57.92C0.870049 57.68 0.990049 57.52 1.08005 57.42C1.17005 57.33 1.25005 57.26 1.32005 57.23C1.39005 57.2 1.46005 57.17 1.56005 57.15C1.66005 57.13 1.77005 57.11 1.91005 57.1C2.04005 57.09 2.21005 57.08 2.40005 57.08C2.61005 57.08 2.79005 57.09 2.93005 57.1C3.08005 57.11 3.20005 57.14 3.29005 57.17C3.38005 57.21 3.45005 57.25 3.49005 57.3C3.53005 57.35 3.55005 57.4 3.55005 57.47C3.55005 57.57 3.49005 57.71 3.37005 57.87C3.22005 58 3.08005 58.2 2.93005 58.46C2.78005 58.72 2.64005 59.02 2.52005 59.37C2.40005 59.72 2.34005 60.14 2.34005 60.63C2.34005 61.17 2.45005 61.65 2.67005 62.07C2.89005 62.49 3.20005 62.85 3.61005 63.15C4.02005 63.45 4.51005 63.67 5.09005 63.83C5.67005 63.99 6.32005 64.06 7.05005 64.06C7.85005 64.06 8.54005 63.98 9.12005 63.81C9.70005 63.65 10.18 63.41 10.56 63.11C10.94 62.81 11.22 62.44 11.4 62.01C11.58 61.58 11.68 61.1 11.68 60.56C11.68 60.07 11.62 59.65 11.51 59.29C11.39 58.93 11.27 58.63 11.13 58.37C10.99 58.11 10.86 57.91 10.75 57.74C10.64 57.57 10.58 57.45 10.58 57.36C10.58 57.29 10.59 57.23 10.62 57.19C10.65 57.15 10.7 57.11 10.79 57.09C10.87 57.06 10.99 57.04 11.14 57.03C11.3 57.01 11.5 57.01 11.75 57.01Z" fill="#062c3d"/>
<path d="M6.87 39.1602C8 39.1602 9 39.3002 9.89 39.5802C10.78 39.8602 11.53 40.2802 12.15 40.8302C12.77 41.3802 13.24 42.0702 13.57 42.8802C13.9 43.6902 14.06 44.6402 14.06 45.7102C14.06 46.7702 13.92 47.6902 13.65 48.4702C13.37 49.2602 12.95 49.9102 12.39 50.4402C11.83 50.9702 11.1 51.3602 10.23 51.6202C9.34 51.8702 8.3 52.0002 7.11 52.0002C6.01 52.0002 5.03 51.8602 4.15 51.5802C3.27 51.3002 2.53 50.8802 1.91 50.3302C1.3 49.7802 0.82 49.0902 0.49 48.2802C0.16 47.4702 0 46.5202 0 45.4502C0 44.4202 0.14 43.5202 0.41 42.7302C0.68 41.9402 1.1 41.2902 1.67 40.7602C2.24 40.2302 2.95 39.8302 3.81 39.5602C4.67 39.2902 5.69 39.1602 6.87 39.1602ZM7.02 42.0502C6.31 42.0502 5.66 42.1102 5.07 42.2202C4.49 42.3302 3.99 42.5202 3.57 42.7902C3.15 43.0602 2.83 43.4202 2.61 43.8602C2.38 44.3102 2.27 44.8702 2.27 45.5402C2.27 46.2202 2.4 46.7802 2.65 47.2402C2.91 47.6902 3.25 48.0602 3.67 48.3402C4.1 48.6202 4.59 48.8202 5.16 48.9302C5.73 49.0502 6.33 49.1002 6.97 49.1002C7.71 49.1002 8.38 49.0402 8.97 48.9302C9.56 48.8202 10.07 48.6302 10.49 48.3602C10.91 48.0902 11.23 47.7402 11.45 47.2902C11.67 46.8402 11.78 46.2802 11.78 45.6002C11.78 44.9202 11.65 44.3602 11.4 43.9002C11.15 43.4502 10.81 43.0802 10.37 42.8002C9.94 42.5202 9.43 42.3202 8.85 42.2102C8.27 42.1002 7.67 42.0502 7.02 42.0502Z" fill="#062c3d"/>
<path d="M12.8499 22.8301C13.0099 22.8301 13.1499 22.8601 13.2799 22.9101C13.4099 22.9701 13.5099 23.0401 13.5899 23.1401C13.6699 23.2301 13.7399 23.3501 13.7699 23.4701C13.8099 23.6001 13.8299 23.7301 13.8299 23.8601V25.0301C13.8299 25.2801 13.8099 25.4901 13.7599 25.6601C13.7099 25.8401 13.6199 26.0001 13.4899 26.1501C13.3599 26.3001 13.1899 26.4401 12.9699 26.5801C12.7499 26.7201 12.4699 26.8801 12.1199 27.0501L5.77994 30.4301C5.39994 30.6301 4.99994 30.8301 4.55994 31.0301C4.11994 31.2301 3.69994 31.4101 3.28994 31.5801V31.6001C3.78994 31.5701 4.28994 31.5501 4.78994 31.5401C5.28994 31.5301 5.80994 31.5201 6.33994 31.5201H13.4399C13.5099 31.5201 13.5699 31.5401 13.6299 31.5801C13.6899 31.6201 13.7299 31.6901 13.7699 31.7801C13.8099 31.8701 13.8399 32.0001 13.8599 32.1601C13.8799 32.3201 13.8899 32.5301 13.8899 32.7801C13.8899 33.0201 13.8799 33.2301 13.8599 33.3901C13.8399 33.5501 13.8099 33.6801 13.7699 33.7701C13.7299 33.8601 13.6799 33.9201 13.6299 33.9601C13.5699 34.0001 13.5099 34.0101 13.4399 34.0101H1.22994C0.899941 34.0101 0.659941 33.9101 0.489941 33.7201C0.329941 33.5301 0.239941 33.2901 0.239941 33.0101V31.5301C0.239941 31.2601 0.259941 31.0401 0.309941 30.8601C0.359941 30.6801 0.429941 30.5201 0.539941 30.3701C0.639941 30.2301 0.789941 30.0901 0.979941 29.9701C1.16994 29.8401 1.38994 29.7201 1.66994 29.5801L6.62994 26.9401C6.92994 26.7901 7.22994 26.6301 7.51994 26.4801C7.80994 26.3301 8.09994 26.1801 8.38994 26.0401C8.67994 25.9001 8.96994 25.7601 9.23994 25.6301C9.51994 25.5001 9.79994 25.3701 10.0799 25.2401V25.2301C9.58994 25.2501 9.07994 25.2701 8.54994 25.2801C7.99994 25.3101 7.49994 25.3101 7.01994 25.3101H0.649941C0.579941 25.3101 0.519941 25.2901 0.459941 25.2501C0.399941 25.2101 0.359941 25.1401 0.309941 25.0401C0.269941 24.9401 0.239941 24.8101 0.219941 24.6501C0.199941 24.4901 0.189941 24.2801 0.189941 24.0301C0.189941 23.7901 0.199941 23.5901 0.219941 23.4301C0.239941 23.2701 0.269941 23.1401 0.309941 23.0601C0.349941 22.9701 0.399941 22.9101 0.459941 22.8801C0.519941 22.8501 0.579941 22.8301 0.649941 22.8301H12.8499Z" fill="#062c3d"/>
<path d="M21.13 12.65C21.23 12.78 21.3 12.91 21.33 13.04C21.36 13.17 21.37 13.3 21.35 13.43C21.33 13.55 21.28 13.67 21.2 13.78C21.12 13.89 21.03 13.99 20.93 14.07L20 14.79C19.81 14.94 19.63 15.05 19.46 15.13C19.29 15.2 19.11 15.23 18.91 15.22C18.71 15.21 18.49 15.16 18.24 15.08C17.99 14.99 17.69 14.87 17.34 14.7L10.76 11.81C10.37 11.64 9.95998 11.44 9.52998 11.22C9.10998 11 8.69998 10.78 8.31998 10.55L8.29998 10.56C8.62998 10.94 8.95998 11.32 9.27998 11.7C9.59998 12.08 9.92998 12.48 10.25 12.9L14.64 18.48C14.68 18.53 14.71 18.6 14.71 18.66C14.71 18.73 14.69 18.81 14.64 18.89C14.59 18.98 14.51 19.08 14.39 19.2001C14.28 19.3201 14.12 19.4501 13.92 19.6101C13.73 19.76 13.56 19.88 13.42 19.96C13.28 20.04 13.16 20.1 13.07 20.1201C12.98 20.1501 12.9 20.15 12.83 20.13C12.77 20.11 12.72 20.07 12.67 20.01L5.11998 10.43C4.91998 10.17 4.83998 9.92005 4.88998 9.67005C4.93998 9.42005 5.06998 9.21005 5.28998 9.04005L6.44998 8.12005C6.65998 7.96005 6.84998 7.84005 7.01998 7.76005C7.21998 7.70005 7.39998 7.66005 7.57998 7.65005C7.75998 7.64005 7.94998 7.67005 8.16998 7.74005C8.37998 7.81005 8.62998 7.91005 8.89998 8.04005L14.05 10.3C14.36 10.44 14.66 10.58 14.96 10.71C15.26 10.85 15.55 10.98 15.84 11.12C16.13 11.26 16.41 11.4 16.69 11.54C16.97 11.68 17.24 11.82 17.51 11.96L17.52 11.95C17.2 11.58 16.87 11.19 16.54 10.78C16.2 10.37 15.89 9.97005 15.59 9.60005L11.65 4.60005C11.61 4.55005 11.58 4.48005 11.58 4.41005C11.58 4.34005 11.6 4.26005 11.65 4.16005C11.7 4.07005 11.78 3.96005 11.9 3.85005C12.02 3.74005 12.17 3.60005 12.37 3.45005C12.56 3.30005 12.72 3.19005 12.86 3.10005C13 3.01005 13.11 2.96005 13.21 2.94005C13.3 2.92005 13.38 2.92005 13.45 2.94005C13.51 2.96005 13.56 3.00005 13.61 3.06005L21.13 12.65Z" fill="#062c3d"/>
<path d="M31.75 12.71C31.75 12.91 31.74 13.08 31.7199 13.22C31.6999 13.36 31.6799 13.47 31.6399 13.55C31.5999 13.63 31.56 13.7 31.51 13.73C31.46 13.77 31.4 13.79 31.34 13.79H24.52C24.29 13.79 24.1 13.72 23.94 13.59C23.78 13.45 23.7 13.23 23.7 12.92V1.08996C23.7 0.779961 23.78 0.559961 23.94 0.419961C24.1 0.279961 24.29 0.209961 24.52 0.209961H31.29C31.35 0.209961 31.4099 0.229961 31.4599 0.259961C31.5099 0.289961 31.55 0.359961 31.59 0.439961C31.62 0.529961 31.65 0.639961 31.67 0.779961C31.69 0.919961 31.7 1.08996 31.7 1.29996C31.7 1.49996 31.69 1.65996 31.67 1.79996C31.65 1.93996 31.63 2.04996 31.59 2.12996C31.55 2.20996 31.5099 2.27996 31.4599 2.30996C31.4099 2.34996 31.36 2.36996 31.29 2.36996H26.45V5.67996H30.5499C30.6099 5.67996 30.6699 5.69996 30.7199 5.73996C30.7699 5.77996 30.82 5.83996 30.85 5.91996C30.89 5.99996 30.91 6.10996 30.93 6.24996C30.95 6.38996 30.9599 6.54996 30.9599 6.74996C30.9599 6.94996 30.95 7.11996 30.93 7.24996C30.91 7.37996 30.89 7.48996 30.85 7.56996C30.82 7.64996 30.7699 7.70996 30.7199 7.73996C30.6699 7.76996 30.6099 7.79996 30.5499 7.79996H26.45V11.63H31.34C31.4 11.63 31.46 11.65 31.51 11.69C31.56 11.73 31.6099 11.79 31.6399 11.87C31.67 11.95 31.6999 12.06 31.7199 12.2C31.74 12.34 31.75 12.51 31.75 12.71Z" fill="#062c3d"/>
<path d="M49.07 11.73C49.07 11.9 49.06 12.05 49.05 12.18C49.04 12.3 49.02 12.41 49 12.49C48.98 12.58 48.95 12.65 48.92 12.72C48.88 12.78 48.83 12.85 48.75 12.93C48.67 13.01 48.52 13.11 48.3 13.24C48.08 13.36 47.81 13.49 47.49 13.6C47.17 13.72 46.81 13.81 46.4 13.89C45.99 13.97 45.55 14.01 45.07 14.01C44.14 14.01 43.3 13.87 42.55 13.58C41.8 13.29 41.17 12.87 40.64 12.3C40.12 11.73 39.71 11.02 39.43 10.17C39.15 9.32 39.01 8.32 39.01 7.19C39.01 6.04 39.16 5.01 39.47 4.12C39.78 3.23 40.21 2.47 40.76 1.87C41.31 1.26 41.97 0.8 42.75 0.49C43.54 0.16 44.4 0 45.33 0C45.71 0 46.07 0.03 46.42 0.09C46.77 0.15 47.09 0.24 47.39 0.34C47.69 0.44 47.95 0.56 48.19 0.69C48.43 0.82 48.59 0.94 48.69 1.03C48.78 1.12 48.85 1.2 48.88 1.27C48.92 1.33 48.94 1.41 48.96 1.51C48.98 1.61 49 1.72 49.01 1.86C49.02 1.99 49.03 2.16 49.03 2.35C49.03 2.56 49.02 2.74 49.01 2.89C49 3.04 48.97 3.16 48.94 3.25C48.9 3.34 48.86 3.41 48.81 3.45C48.76 3.49 48.71 3.51 48.64 3.51C48.54 3.51 48.4 3.45 48.24 3.33C48.08 3.21 47.87 3.07 47.62 2.92C47.37 2.77 47.06 2.63 46.71 2.51C46.36 2.39 45.94 2.33 45.45 2.33C44.91 2.33 44.43 2.44 44.01 2.66C43.59 2.88 43.23 3.2 42.93 3.6C42.62 4 42.4 4.5 42.24 5.08C42.08 5.66 42.01 6.31 42.01 7.04C42.01 7.84 42.09 8.53 42.26 9.11C42.42 9.69 42.66 10.17 42.96 10.55C43.26 10.93 43.63 11.21 44.06 11.39C44.49 11.58 44.97 11.67 45.51 11.67C46 11.67 46.42 11.61 46.78 11.5C47.14 11.39 47.44 11.26 47.7 11.12C47.96 10.98 48.16 10.85 48.33 10.74C48.49 10.63 48.62 10.57 48.71 10.57C48.78 10.57 48.84 10.58 48.88 10.61C48.92 10.64 48.96 10.69 48.98 10.78C49.01 10.86 49.03 10.98 49.04 11.13C49.06 11.28 49.07 11.48 49.07 11.73Z" fill="#062c3d"/>
<path d="M66.0001 3.34997C66.0001 3.54997 65.9901 4.55997 65.9701 4.69997C65.9501 4.83997 65.9301 4.95997 65.8901 5.04997C65.8501 5.13997 65.8101 5.19997 65.7601 5.23997C65.7101 5.27997 65.6501 5.29997 65.5901 5.29997L62.1901 3.84997V13.4C62.1901 13.47 62.1701 13.53 62.1201 13.59C62.0701 13.65 62.0001 13.69 61.8901 13.73C61.7901 13.77 61.6401 13.79 61.4701 13.81C61.2901 13.83 61.0701 13.84 60.8001 13.84C60.5301 13.84 60.3101 13.83 60.1301 13.81C59.9501 13.79 59.8101 13.76 59.7101 13.73C59.6101 13.7 59.5301 13.65 59.4801 13.59C59.4301 13.53 59.4101 13.47 59.4101 13.4V3.85997L56.0101 5.30997C55.9401 5.30997 55.8801 5.28997 55.8301 5.24997C55.7801 5.20997 55.7401 5.13997 55.7001 5.05997C55.6701 4.96997 55.6401 4.85997 55.6201 4.70997C55.6001 4.56997 55.5901 3.55997 55.5901 3.35997C55.5901 3.14997 55.6001 2.96997 55.6201 2.81997C55.6401 2.66997 55.6601 2.55997 55.7001 2.46997C55.7401 2.37997 55.7801 2.31997 55.8301 2.27997C55.8801 2.23997 55.9401 2.21997 56.0101 2.21997L60.7901 0.219971L65.5701 2.21997C65.6301 2.21997 65.6901 2.23997 65.7401 2.27997C65.7901 2.31997 65.8401 2.37997 65.8701 2.46997C65.9001 2.55997 65.9301 2.66997 65.9501 2.81997C66.0001 2.95997 66.0001 3.13997 66.0001 3.34997Z" fill="#062c3d"/>
</g>
<defs>
<clipPath id="clip0">
<rect width="66" height="67.04" fill="white"/>
</clipPath>
</defs>
</svg>
