<svg width="12" height="12" viewBox="0 0 12 12" fill="none" xmlns="http://www.w3.org/2000/svg">
<path d="M9.32209 10.0639C9.32209 10.6988 8.8083 11.2161 8.17775 11.2161H1.9228C1.29225 11.2161 0.778463 10.6988 0.778463 10.0639V3.76607C0.778463 3.13119 1.29225 2.61388 1.9228 2.61388H7.00616V1.83008H1.9228C0.864093 1.83008 0 2.7001 0 3.76607V10.06C0 11.1299 0.864093 11.996 1.9228 11.996H8.17386C9.23646 11.996 10.0967 11.126 10.0967 10.06V5.72557H9.3182V10.0639H9.32209Z" fill="#919FA2"/>
<path d="M5.46856 7.33246L3.17989 4.23253L2.55322 4.69889L5.44132 8.60614L11.9999 0.493795L11.3966 0L5.46856 7.33246Z" fill="#919FA2"/>
</svg>
