<svg width="12" height="12" viewBox="0 0 12 12" fill="none" xmlns="http://www.w3.org/2000/svg">
<g clip-path="url(#clip0)">
<path d="M9.56088 10.0235C9.56088 10.6717 9.03393 11.1999 8.38723 11.1999H1.97206C1.32535 11.1999 0.798403 10.6717 0.798403 10.0235V3.59336C0.798403 2.94514 1.32535 2.41697 1.97206 2.41697H6.38723V1.6167H1.97206C0.886228 1.6167 0 2.505 0 3.59336V10.0195C0 11.1119 0.886228 11.9962 1.97206 11.9962H8.38323C9.47305 11.9962 10.3553 11.1079 10.3553 10.0195V5.59402H9.55689V10.0235H9.56088Z" fill="#919FA2"/>
<path d="M7.23752 0.976325L10.5828 0.852284L3.85229 7.59853L4.41517 8.16672L11.1497 1.41647L11.0259 4.77359L11.8244 4.8016L12 0L7.20559 0.176059L7.23752 0.976325Z" fill="#919FA2"/>
</g>
<defs>
<clipPath id="clip0">
<rect width="12" height="12" fill="white"/>
</clipPath>
</defs>
</svg>
